<svg width="1572" height="814" viewBox="0 0 1572 814" fill="none" xmlns="http://www.w3.org/2000/svg">
<path d="M226.58 469.525V478.895H81.0497V468.745C87.9697 468.395 95.0497 467.885 102.14 467.705C111.59 467.465 117.06 462.725 119.85 453.785C128.75 425.265 135 396.175 139.36 366.655C139.48 365.855 139.37 365.015 139.37 363.225C121.58 375.215 104.32 386.855 86.0397 399.175C86.7197 389.075 87.2997 380.315 87.8997 371.555C87.9797 370.395 88.3897 369.195 88.2297 368.075C86.5397 356.295 92.6497 349.375 101.79 342.915C117.96 331.465 133.21 318.725 149.05 306.805C153.17 303.705 155.35 300.165 156.63 295.185C169.79 243.915 183.14 192.705 196.63 141.515C197.97 136.425 199.79 131.125 202.76 126.895C205.25 123.345 209.36 119.905 213.43 118.685C225.66 115.015 233.99 121.365 234.24 134.685C234.4 143.605 233.37 152.645 231.91 161.475C226.04 196.955 219.79 232.375 213.69 267.815C213.64 268.125 213.78 268.465 213.93 269.495C215.46 268.455 216.77 267.625 218.01 266.705C258.01 237.235 294.39 203.715 327.83 167.085C344.9 148.385 356.85 126.445 361.93 101.305C363.04 95.8152 363.58 89.9952 363.1 84.4352C361.4 64.8752 349.61 52.7752 328.79 49.3652C305.26 45.5052 281.76 47.2752 258.92 53.3852C210.79 66.2752 165.52 85.7652 124.97 115.185C106.48 128.595 90.0897 144.165 78.4297 164.105C70.1997 178.185 65.0597 193.125 67.2997 209.805C68.4097 218.085 72.2397 224.865 78.4997 230.395C82.8597 234.255 87.3797 238.035 91.1897 242.405C97.7497 249.915 96.5997 257.435 88.5797 263.375C75.9997 272.685 56.7497 270.475 45.2897 258.345C25.5397 237.445 20.9297 212.965 27.8597 185.595C34.3597 159.945 47.2097 138.095 65.3797 118.905C124.82 56.1252 198.96 21.6452 282.58 5.22518C311.92 -0.534825 341.42 -2.06483 370.98 3.34517C385.86 6.07517 399.83 11.4652 412.41 19.9952C437.83 37.2252 446.49 62.0652 443.99 91.5652C441.78 117.585 429.3 139.405 414.41 159.945C390.72 192.625 361.03 219.445 329.55 244.265C290.13 275.355 248.48 303.275 205.88 329.805C203.93 331.025 202.07 333.585 201.61 335.825C194.3 371.545 187.21 407.305 180.09 443.065C177.46 456.285 180.1 460.995 193.4 464.245C201.77 466.295 210.45 467.075 219 468.415C221.43 468.795 223.88 469.115 226.59 469.505L226.58 469.525ZM381.64 41.5252C381.19 41.9352 380.73 42.3352 380.28 42.7452C382.08 44.2252 384.09 45.5252 385.66 47.2252C398.84 61.4352 403.26 78.1652 399.83 97.1252C397.4 110.595 391.8 122.825 385.05 134.565C371.33 158.455 353.34 179.015 334.31 198.685C302.56 231.505 266.67 259.445 229.91 286.325C228.46 287.385 227.07 288.525 225.66 289.625C227.19 289.855 228.2 289.375 229.13 288.775C267.75 263.885 304.09 236.075 336.86 203.785C358.55 182.415 378.17 159.365 392.3 132.125C399.1 119.025 404.23 105.345 404.99 90.3952C406.04 69.8052 397.52 53.8452 381.63 41.5152L381.64 41.5252ZM153.97 440.085C176.94 347.435 196.39 254.055 212.23 159.925C189.23 252.565 169.86 345.965 153.97 440.085Z" fill="black"/>
<path d="M1042.71 478.845V466.375C1050.39 465.715 1057.82 465.015 1065.26 464.465C1086.85 462.865 1099.44 449.475 1099.52 427.445C1099.67 382.775 1099.63 338.105 1099.66 293.435C1099.67 277.945 1099.66 262.465 1099.66 246.365C1097.84 246.285 1096.26 246.145 1094.68 246.145C1080.35 246.125 1066.01 246.235 1051.68 246.065C1048.29 246.025 1046.44 247.055 1044.65 250.075C1031.49 272.245 1015.77 292.475 997.44 310.595C994.81 313.195 995.4 315.435 995.87 318.185C1003.29 361.475 994.82 401.335 967.65 435.965C946.21 463.285 917.88 480.545 882.53 482.435C837.07 484.865 801.67 465.385 776.74 427.965C743.19 377.595 745.91 307.925 782.52 261.655C802.02 237.005 826.81 219.985 858.44 215.705C906.77 209.165 959.02 229.565 983.66 281.995C984.64 284.075 985.69 286.135 986.9 288.605C1006.01 269.895 1020.89 248.805 1031.31 224.665C1032.65 221.555 1034.14 220.495 1037.51 220.495C1110.68 220.595 1183.84 220.565 1257.01 220.575C1258.32 220.575 1259.63 220.695 1261.41 220.785V319.835H1246.51C1245.54 309.805 1244.68 299.885 1243.58 289.985C1242.68 281.875 1241.76 273.755 1240.4 265.715C1238.35 253.585 1230.95 246.715 1219.05 246.525C1198.89 246.215 1178.72 246.455 1158.55 246.475C1158.08 246.475 1157.61 246.695 1156.69 246.915C1156.61 248.625 1156.46 250.405 1156.46 252.175C1156.67 314.845 1156.89 377.515 1157.13 440.185C1157.13 442.515 1157.22 444.865 1157.53 447.165C1158.9 457.215 1164.58 462.625 1174.72 463.305C1186.52 464.095 1198.34 464.675 1210.15 465.355C1211.45 465.425 1212.75 465.525 1214.38 465.635V478.855H1042.72L1042.71 478.845ZM822.53 294.185C821.82 294.785 821.35 295.025 821.13 295.405C804.93 322.735 796.61 351.885 804.86 383.365C814.32 419.465 835.44 439.805 868.23 441.875C901.64 443.985 925.54 433.825 942.53 403.065C951.14 387.485 955.6 370.725 956.57 353.005C956.93 346.465 957.26 339.915 957.65 332.425C932.82 347.075 907.14 350.535 880.6 344.125C853.15 337.505 834.06 320.065 822.53 294.185ZM921.27 315.945C930.66 313.925 940.05 311.875 949.45 309.915C953.22 309.125 954 307.485 952.8 303.615C944.71 277.515 925.92 263.695 900.49 257.275C884.71 253.295 869.86 255.565 855.6 263.345C851.34 265.665 850.62 268.005 853.07 271.925C868.84 297.145 889.31 314.885 921.26 315.945H921.27ZM794.42 420.175C763.97 355.045 780.63 299.635 828.79 250.555C799.44 273.195 780.31 302.075 774.83 339.015C770.46 368.465 778.88 395.135 794.42 420.175ZM1128.06 259.465C1124.37 322.835 1124.34 386.145 1128.06 449.455C1131.78 386.105 1131.76 322.755 1128.06 259.465Z" fill="black"/>
<path d="M688.97 617.975C682.87 617.425 677.33 617.355 672.02 616.235C669.75 615.755 666.26 612.975 666.34 611.395C666.46 609.015 668.75 606.015 670.97 604.615C674.58 602.335 678.87 601.165 682.86 599.495C688.49 597.135 693.64 596.445 699.33 600.365C705.6 604.685 712.99 603.585 720.17 602.235C732.28 599.965 744.38 597.625 756.57 595.865C760.88 595.245 765.5 595.805 769.83 596.625C773.44 597.305 775.03 600.375 773.88 603.945C772.82 607.215 771.56 610.605 769.56 613.335C760.8 625.305 751.74 637.045 742.8 648.875C741.7 650.335 740.12 651.705 739.71 653.355C739.25 655.235 739.21 657.835 740.21 659.255C740.97 660.335 743.93 660.825 745.41 660.265C748.96 658.935 752.45 657.155 755.55 654.975C770.67 644.335 785.67 633.515 800.69 622.735C809.22 616.615 817.63 610.325 826.28 604.385C827.91 603.265 830.56 602.845 832.54 603.205C835.65 603.765 836.49 605.975 834.51 608.775C832 612.305 829.44 615.795 826.99 619.365C821.15 627.865 817.15 637.075 815.97 647.435C814.75 658.205 818.57 662.815 829.26 663.225C842.56 663.725 847.53 659.575 851.79 646.225C860.39 619.235 879.01 602.145 905.88 594.245C910.67 592.835 916.59 593.455 921.56 594.775C933.16 597.855 937.38 609.465 929.62 618.605C921.49 628.185 912.54 637.425 902.54 644.955C891.34 653.395 878.57 659.755 865.52 667.605C868.49 669.115 871.51 671.345 874.89 672.225C884.73 674.795 894.68 674.575 904.51 671.815C925.26 665.995 943.06 654.785 959.9 641.715C962.43 639.755 965.54 638.065 968.63 637.445C972.6 636.645 974.62 639.575 972.99 643.295C972.15 645.205 970.7 647.005 969.13 648.405C945.72 669.305 918.84 682.685 887.18 684.795C874.02 685.675 861.71 682.475 851.56 673.215C850.51 672.255 848.62 671.655 847.19 671.765C840.72 672.245 834.27 673.055 827.81 673.725C811.36 675.435 801.73 665.435 804.02 648.925C804.67 644.215 805.6 639.555 806.58 633.785C802.19 637.095 798.85 640.145 795.04 642.415C780.06 651.355 764.95 660.095 749.82 668.795C747.69 670.025 745.18 670.625 742.82 671.435C737.07 673.405 731.78 672.295 727.62 668.035C723.74 664.065 724.61 658.865 726.3 654.365C727.86 650.235 730.35 646.325 733.03 642.765C741.24 631.845 749.74 621.145 758.12 610.355C759.22 608.945 760.3 607.515 762.29 604.925C754.94 606.305 748.85 607.355 742.8 608.595C732.2 610.765 721.66 613.235 711.02 615.195C706.66 615.995 703.89 618.165 701.66 621.805C685.36 648.435 662.39 667.405 633.66 679.085C626.34 682.055 617.87 682.915 609.86 683.285C601.36 683.675 596.43 678.255 596.81 669.705C597.06 663.965 598.76 658.285 599.97 652.605C600.48 650.235 601.4 647.965 602.24 645.325C592.64 651.635 583.65 657.885 574.31 663.555C566.35 668.385 557.99 672.545 549.8 676.975C548.78 677.525 547.66 677.905 546.58 678.325C530.07 684.575 521.89 680.285 517.54 663.115C517.38 662.475 517.17 661.855 516.76 660.435C514.92 661.695 513.39 662.785 511.82 663.815C502.78 669.725 494.09 676.345 484.54 681.275C478.21 684.545 470.73 686.215 463.58 687.125C453.56 688.385 447.93 683.205 446.61 673.155C446.2 670.045 446.06 666.905 445.73 663.065C443.75 663.765 442.08 664.285 440.48 664.935C425.84 670.905 411.24 676.965 396.57 682.865C387.66 686.445 378.59 688.845 368.82 686.515C362.93 685.115 359.66 681.675 358.45 675.805C357 668.815 357.5 662.065 361.23 655.995C369.34 642.815 377.77 629.825 386.08 616.765C387.05 615.245 388.09 613.775 390.03 610.885C380.33 612.665 371.97 614.145 363.62 615.735C353.01 617.755 344.52 622.725 337.04 631.005C323.77 645.675 309.99 660.065 295.04 672.965C286.16 680.635 275.13 686.485 264.18 690.955C244.84 698.855 230.7 691.575 223.64 671.945C223.37 671.205 223.06 670.475 222.61 669.335C217.68 671.505 213.1 673.855 208.29 675.575C197.34 679.495 186.31 683.175 175.25 686.765C173.09 687.465 170.65 687.485 168.33 687.505C160.99 687.565 157.59 684.365 157.34 676.985C157.24 674.005 157.55 670.995 157.96 668.035C158.34 665.275 159.08 662.575 159.93 658.635C157.49 660.205 156.01 661.125 154.56 662.085C139.93 671.715 125.15 681.115 108.46 686.795C103.01 688.645 97.1597 689.905 91.4297 690.185C82.8297 690.615 77.4197 685.855 76.5197 677.335C75.8697 671.155 76.3897 664.855 76.3897 658.275C75.2097 658.655 73.5197 659.165 71.8597 659.765C52.1097 666.815 32.3897 673.945 12.5997 680.875C9.50971 681.955 6.13971 682.295 2.85971 682.665C1.91971 682.775 0.119707 681.915 0.0297071 681.305C-0.130293 680.225 0.369705 678.505 1.19971 677.905C3.59971 676.175 6.17971 674.545 8.91971 673.435C30.9897 664.525 53.0497 655.595 75.2597 647.045C80.1597 645.165 83.2497 642.275 85.5997 637.785C106.32 598.215 137.55 569.225 176.82 548.845C186.58 543.785 197.67 541.265 208.21 537.765C210.03 537.155 212.18 537.335 214.17 537.455C219.87 537.785 222.74 541.485 221.04 546.975C219.88 550.745 218.09 554.425 216.01 557.785C201.53 581.125 181.78 599.365 159.69 615.245C139.06 630.085 116.93 642.325 93.5397 652.205C90.5397 653.475 88.9697 655.185 88.4697 658.215C87.8797 661.825 86.8597 665.405 86.6997 669.035C86.3497 676.895 90.5597 680.395 98.0597 678.005C106.45 675.335 114.78 672.315 122.77 668.655C146.4 657.815 165.16 640.635 182.33 621.555C187.62 615.685 191.22 614.025 194.26 616.215C197.18 618.315 196.7 622.245 192.48 629.305C186.5 639.315 180.45 649.285 174.44 659.275C173.58 660.705 172.33 662.085 172.05 663.625C171.48 666.875 170.18 670.865 171.46 673.385C173.31 677.025 177.71 675.745 180.95 674.395C194.16 668.895 207.42 663.495 220.32 657.335C223.08 656.015 225.18 651.945 226.25 648.705C237.42 614.905 256.36 586.135 281.98 561.625C296.73 547.515 312.98 535.345 330.32 524.615C333.26 522.795 336.52 521.375 339.79 520.215C345.14 518.315 350.01 519.535 354.03 523.555C358.13 527.655 359.74 532.605 357.74 538.185C356.46 541.765 354.82 545.265 352.93 548.565C337.12 576.185 315.28 598.515 290.71 618.285C275.79 630.295 260.34 641.655 245.13 653.295C243.94 654.205 242.68 655.035 241.52 655.975C235.63 660.775 234.18 665.175 236.43 671.225C239.38 679.145 244.79 683.365 252.04 682.695C255.63 682.365 259.25 681.345 262.64 680.065C284.28 671.905 301.62 658.125 315.67 639.135C311.65 638.415 308.08 638.095 304.71 637.095C298.6 635.275 297.45 630.785 301.96 626.195C306.74 621.325 312.21 618.315 319.45 620.765C325.82 622.925 331.72 621.465 336.75 617.205C340.42 614.095 343.68 610.485 347.16 607.145C349.04 605.345 351.01 603.645 353.46 601.435C354.37 603.815 354.99 605.425 355.91 607.825C362.39 606.905 369.05 605.855 375.75 605.035C384.01 604.025 392.27 602.935 400.57 602.415C407.35 601.985 408.21 603.515 404.53 609.435C400.23 616.355 395.42 622.965 390.77 629.675C384.32 638.985 377.66 648.145 371.44 657.605C369.38 660.735 367.93 664.455 366.97 668.105C365.51 673.695 368.84 677.795 374.61 677.605C377.88 677.505 381.27 676.855 384.34 675.715C405.71 667.775 427.04 659.725 448.3 651.475C450.4 650.665 452.27 648.585 453.63 646.665C468.66 625.485 487.18 608.855 512.49 600.915C523.65 597.415 534.51 598.215 545.14 602.875C552.78 606.225 554.44 610.035 550.79 617.465C547.63 623.875 543.55 629.835 540.41 636.255C536.7 643.855 533.07 651.575 530.34 659.565C527.96 666.515 532.4 670.825 539.46 668.915C542.77 668.025 546.08 666.545 548.96 664.665C574.35 648.055 599.3 630.825 621.74 610.245C624.48 607.735 627.8 603.975 631.63 606.885C635.48 609.825 633.4 614.395 631.53 617.885C625.25 629.625 618.51 641.125 612.31 652.915C610.42 656.505 608.99 660.635 608.61 664.635C608.06 670.375 611.78 673.855 617.55 673.345C621.29 673.015 625.19 672.095 628.58 670.515C652.17 659.505 671.44 643.215 686.67 622.135C687.52 620.955 688.12 619.605 689.02 618.015L688.97 617.975ZM239.98 644.035C240.42 644.305 240.86 644.565 241.3 644.835C247.18 640.235 253.06 635.635 258.95 631.045C279.58 614.955 300.57 599.155 317.81 579.335C327.38 568.335 335.52 556.065 343.89 544.065C345.07 542.365 344.78 538.105 343.43 536.615C342.08 535.135 338.39 534.985 335.99 535.485C333.16 536.085 330.47 537.785 327.95 539.385C292.62 561.895 265.19 591.725 245.77 628.835C243.27 633.605 241.89 638.965 239.98 644.045V644.035ZM468.18 675.045C470.68 674.265 473.3 673.735 475.67 672.675C501.45 661.095 520.21 641.635 535.8 618.705C538.75 614.355 537.03 610.395 531.78 610.465C524.39 610.565 516.66 610.685 509.7 612.815C488.99 619.145 475.04 633.865 464.57 652.185C462.45 655.895 460.49 659.885 459.44 663.995C457.5 671.595 460.13 674.505 468.18 675.055V675.045ZM95.1897 638.635C96.6197 638.115 97.2297 637.985 97.7297 637.695C126.8 620.755 155.21 602.815 180.63 580.645C188.11 574.115 194.71 566.545 201.36 559.135C202.49 557.875 202.61 554.535 201.71 553.035C201.02 551.885 197.88 551.485 196.07 551.875C193.37 552.455 190.82 553.915 188.32 555.205C151.14 574.315 121.48 601.995 96.9697 635.515C96.4397 636.235 96.0697 637.075 95.1897 638.645V638.635ZM865.03 654.435C867.66 653.305 869.45 652.825 870.93 651.865C883.62 643.675 896.45 635.675 908.8 626.995C913.18 623.915 916.75 619.405 919.94 615.005C923.76 609.715 922.14 605.685 916.04 603.315C910.62 601.215 905.42 602.505 900.64 605.025C883.69 613.965 872.05 627.535 866.27 645.895C865.51 648.315 865.51 650.985 865.03 654.425V654.435Z" fill="black"/>
<path d="M1504.69 301.955C1448.68 330.535 1393.11 358.895 1337.17 387.445C1341.22 400.715 1347.39 412.365 1356.19 422.525C1378.02 447.705 1405.71 453.305 1436.93 445.865C1465.3 439.105 1490.01 424.735 1513.36 407.875C1523.17 400.795 1532.48 393.025 1542.81 384.955C1542.15 393.785 1541.62 401.985 1540.85 410.165C1540.74 411.305 1539.65 412.525 1538.72 413.395C1506.06 444.015 1469.01 466.855 1424.83 476.565C1346.12 493.865 1293.35 438.685 1281.7 384.475C1272.44 341.405 1279.26 301.095 1305.97 265.515C1332.06 230.765 1367.54 219.315 1409.85 226.435C1455.28 234.075 1485.87 260.115 1504.67 301.965L1504.69 301.955ZM1446.31 283.185C1427.8 258.535 1390.85 244.075 1359.56 262.425C1333.25 277.855 1316.49 316.725 1326.98 339.755C1366.64 320.955 1406.3 302.155 1446.31 283.185ZM1351.34 445.645C1305.13 401.955 1298.15 348.255 1312.14 288.795C1287.87 337.705 1301.86 417.785 1351.34 445.645Z" fill="black"/>
<path d="M555.46 250.605C544.19 253.465 533.58 256.155 522.04 259.085C522.38 253.725 522.54 248.996 523.08 244.306C523.2 243.286 524.51 242.095 525.56 241.535C561.37 222.415 598.72 208.496 640.03 208.746C658.97 208.856 677.57 211.475 695.02 219.485C723.14 232.385 739.27 257.906 737.48 287.465C736.41 305.135 728.84 320.125 716.59 332.765C701.34 348.505 682.65 359.146 662.6 367.126C645.63 373.876 628.07 379.175 610.67 384.795C607.36 385.865 606.19 387.146 606.24 390.596C606.42 404.256 606.22 417.925 606.33 431.585C606.52 453.945 613.1 461.836 635.12 466.016V478.946H522.33V466.025C526.75 464.485 531.55 463.185 536.03 461.175C548.61 455.525 555.45 445.835 555.47 431.825C555.56 372.835 555.61 313.836 555.66 254.846C555.66 253.706 555.55 252.556 555.46 250.596V250.605ZM606.17 351.425C607.89 351.345 608.91 351.455 609.84 351.235C631.16 346.205 650.93 337.745 668.13 324.015C678.06 316.085 684.32 305.565 687.16 293.145C693.16 266.885 676.3 242.875 649.57 239.165C636.69 237.375 624.03 238.756 611.31 240.526C607.16 241.106 606.04 242.866 606.07 246.996C606.26 275.636 606.17 304.266 606.17 332.906C606.17 339.026 606.17 345.135 606.17 351.425ZM577.64 447.186C581.38 386.965 581.35 326.745 577.66 266.515C573.79 326.725 573.84 386.945 577.64 447.186Z" fill="black"/>
<path d="M502.59 468.756V478.846H388.36C386.86 470.696 386.95 470.606 393.98 468.306C399.67 466.436 405.37 464.576 410.96 462.426C417.89 459.756 421.42 454.496 421.71 447.066C421.71 446.896 421.73 446.736 421.74 446.566C422.25 429.476 418.18 428.076 404.46 428.256C384.8 428.506 365.13 428.236 345.47 428.156C332.98 428.106 329.1 431.406 327.37 443.716C325.39 457.826 327.42 461.406 341.56 464.646C351.9 467.016 362.53 468.126 373.43 469.856V478.836H261.79V468.806C267.1 468.436 272.37 468.066 277.64 467.696C287.71 466.996 294.98 461.886 299.24 452.976C302.89 445.336 305.85 437.356 308.98 429.476C329.97 376.576 351.05 323.696 371.83 270.706C378.69 253.206 384.76 235.386 391.19 217.716C391.7 216.326 392.24 214.946 392.72 213.666C404.36 212.446 404.4 212.426 407.17 222.736C426.31 293.936 445.45 365.126 464.54 436.336C469.53 454.946 481.53 465.386 502.6 468.756H502.59ZM413.86 412.276C404.31 377.476 394.94 343.326 385.19 307.776C370.16 343.466 355.77 377.666 341.2 412.276H413.86ZM444.11 440.266C432.45 383.676 417.45 328.126 398.85 273.546C410.49 330.096 425.5 385.726 444.11 440.266Z" fill="black"/>
<path d="M1455.87 680.435C1433.03 691.505 1409.36 698.135 1385.31 703.615C1382.32 704.295 1381.02 705.515 1380.76 708.835C1378.1 743.395 1363.97 773.305 1342.8 800.125C1337.33 807.065 1330.6 813.085 1320.86 813.385C1314.92 813.565 1310.89 811.125 1310.22 805.155C1309.36 797.475 1309.11 789.495 1310.2 781.875C1313.61 758.195 1321.67 735.745 1329.67 713.315C1332.01 706.745 1331.21 705.575 1324.05 705.345C1320.55 705.235 1317.05 705.305 1313.56 705.185C1309.81 705.055 1308.22 703.515 1309.21 699.415C1311.27 690.855 1317.47 686.915 1325.08 684.425C1328.86 683.185 1333.17 682.945 1336.44 680.945C1340.27 678.605 1343.23 674.855 1346.24 671.075C1336.2 673.375 1326.39 675.575 1317.18 669.825C1307.26 663.625 1307.48 653.635 1308.63 642.245C1303.7 647.955 1299.88 652.955 1295.46 657.355C1289.81 662.965 1284.12 668.705 1277.66 673.275C1267.61 680.375 1256.75 681.115 1245.68 674.765C1244.29 673.965 1241.57 674.345 1240 675.175C1223.93 683.725 1207.05 689.325 1188.78 690.715C1162.43 692.735 1148.11 676.955 1152.91 650.905C1158.19 622.265 1190.47 595.825 1219.56 596.655C1223.21 596.755 1227.03 598.175 1230.38 599.805C1233.54 601.335 1233.2 603.965 1229.82 604.985C1227.17 605.785 1224.25 605.865 1221.44 605.935C1194.34 606.625 1169.76 626.375 1164.24 651.965C1160.68 668.465 1169.59 679.725 1186.41 679.625C1203.95 679.525 1220.28 674.785 1235.3 665.775C1237.04 664.725 1239.02 662.545 1239.23 660.695C1240.68 647.645 1246.37 636.495 1254.12 626.275C1265.93 610.705 1280.66 598.545 1298.75 591.145C1304.49 588.795 1311.38 588.105 1317.64 588.475C1329.05 589.135 1333.8 596.175 1331.19 607.385C1329.12 616.295 1326.37 625.035 1324.01 633.875C1322.89 638.055 1321.68 642.235 1321.02 646.495C1319.78 654.575 1324.47 660.245 1332.65 660.555C1347.04 661.105 1356.69 653.785 1363.9 641.905C1373.92 625.405 1383.35 608.405 1394.87 592.995C1406.69 577.185 1420.02 562.325 1434.05 548.425C1441.91 540.635 1452.29 535.245 1461.98 529.515C1467.76 526.095 1474.56 525.305 1480.32 530.015C1486 534.655 1486.56 541.395 1485.14 547.915C1483.84 553.875 1482.03 559.955 1479.18 565.315C1457.05 607.015 1425.48 638.715 1380.97 656.315C1373.63 659.215 1367.46 663.455 1363.23 670.245C1356.78 680.625 1360.86 689.665 1373.07 690.185C1381.28 690.535 1390 690.215 1397.73 687.795C1415.3 682.275 1432.4 675.245 1449.72 668.895C1454.31 667.215 1453.03 663.155 1453.37 659.985C1455.63 639.295 1463.4 621.005 1477.44 605.675C1489.05 592.995 1503.52 585.155 1520.99 585.475C1538.32 585.795 1538.27 591.685 1532.42 603.375C1523.5 621.215 1510.41 635.925 1495.79 649.195C1487.55 656.675 1478.53 663.325 1469.58 669.965C1466.84 671.995 1466.34 673.625 1467.68 676.475C1471.62 684.905 1478.45 688.925 1487.49 689.375C1499.25 689.965 1510.27 686.975 1520.74 681.825C1532.65 675.965 1543.17 668.155 1552.77 659.015C1556.62 655.345 1560.62 651.795 1564.87 648.595C1566.15 647.625 1569.18 647.225 1570.14 648.045C1571.23 648.985 1571.64 651.875 1571.03 653.385C1569.75 656.575 1568.02 659.785 1565.75 662.355C1547.05 683.625 1524.08 697.585 1495.67 701.045C1478.3 703.165 1464.03 697.705 1455.86 680.425L1455.87 680.435ZM1379.94 642.685C1383.22 641.395 1385.21 640.705 1387.13 639.845C1405.49 631.665 1421.05 619.475 1435.4 605.665C1449.37 592.215 1462.18 577.735 1470.97 560.265C1473.31 555.625 1474.89 550.315 1475.51 545.155C1476.25 539.055 1471.93 535.875 1466.32 538.325C1460.91 540.695 1455.49 543.675 1451.03 547.495C1423.51 571.045 1401.6 599.125 1384.82 631.205C1383.14 634.425 1381.95 637.905 1379.94 642.685ZM1369.56 715.955C1369.75 703.085 1364.09 699.285 1354.42 703.415C1345.7 707.145 1340.02 713.935 1336.25 722.445C1326.54 744.405 1321.23 767.535 1318.6 791.295C1318.28 794.225 1319.87 797.355 1320.57 800.395C1323.56 799.295 1326.78 798.575 1329.47 796.975C1331.84 795.565 1333.9 793.375 1335.59 791.155C1340.9 784.135 1346.55 777.275 1351.03 769.735C1361.32 752.385 1368.34 733.805 1369.56 715.955ZM1312.54 595.385C1307.37 597.055 1301.86 598.055 1297.1 600.515C1277.92 610.425 1263.26 625.125 1253.29 644.275C1251.27 648.155 1249.95 652.725 1249.61 657.075C1248.87 666.615 1255.7 671.355 1264.56 667.545C1268.78 665.735 1272.85 663.185 1276.38 660.235C1294.08 645.395 1307.66 627.105 1319.39 607.405C1323.67 600.215 1321.17 596.345 1312.54 595.375V595.385ZM1463.33 660.495C1464.38 660.355 1464.79 660.415 1465.02 660.245C1483.5 646.445 1500.8 631.415 1514.02 612.275C1515.97 609.455 1517.48 606.145 1518.39 602.845C1519.7 598.105 1517.12 595.465 1512.46 596.895C1508.23 598.195 1503.95 599.975 1500.29 602.435C1483.7 613.565 1472.15 628.635 1466.26 647.825C1465.02 651.875 1464.33 656.105 1463.33 660.495Z" fill="black"/>
<path d="M1054.75 642.426C1045.61 642.426 1036.47 642.396 1027.32 642.446C1024.07 642.466 1021.66 641.536 1021.64 637.806C1021.63 634.226 1023.86 632.806 1027.13 632.786C1045.91 632.666 1064.7 632.636 1083.48 632.436C1087.25 632.396 1088 634.786 1088.11 637.536C1088.24 640.716 1086.99 642.906 1083.16 642.856C1073.69 642.736 1064.21 642.816 1054.73 642.816C1054.73 642.686 1054.73 642.566 1054.73 642.436L1054.75 642.426Z" fill="black"/>
<path d="M1488.12 584.525C1487.35 583.845 1485.57 583.015 1485.21 581.765C1484.84 580.515 1485.66 578.725 1486.38 577.405C1486.78 576.665 1488.02 576.355 1488.92 575.915C1505.66 567.715 1522.39 559.495 1539.18 551.385C1540.73 550.635 1542.75 550.035 1544.33 550.385C1547.48 551.075 1547.93 555.305 1544.88 557.425C1528.08 569.095 1509.8 577.795 1490.4 584.205C1489.93 584.355 1489.42 584.345 1488.12 584.525Z" fill="black"/>
<path d="M840.71 581.196C841.68 574.816 844.84 570.505 849.52 569.835C853.23 569.305 854.88 570.906 854.18 574.516C853.68 577.116 853.25 579.775 852.29 582.225C851.17 585.105 849.73 589.045 845.98 587.805C843.74 587.055 842.43 583.496 840.71 581.206V581.196Z" fill="black"/>
<path d="M632.35 581.455C633.42 574.395 636.54 570.075 641.51 569.825C644.44 569.675 646.98 570.265 645.76 574.355C644.96 577.045 645 580.145 643.64 582.455C642.31 584.725 639.69 586.245 637.63 588.095C635.87 585.885 634.11 583.665 632.35 581.455Z" fill="black"/>
<path d="M198.62 597.815C199.65 590.935 203.46 586.325 208.47 586.445C211.2 586.505 213.03 587.435 212.24 590.675C211.58 593.405 211.21 596.245 210.22 598.845C209.12 601.725 207.71 605.645 203.89 604.305C201.65 603.515 200.35 600.065 198.62 597.815Z" fill="black"/>
</svg>
