<svg width="157" height="175" viewBox="0 0 157 175" fill="none" xmlns="http://www.w3.org/2000/svg">
<g clip-path="url(#clip0_382_4640)">
<path d="M75.38 171.55V174.87H20.83C20.83 173.83 20.78 172.78 20.87 171.74C20.89 171.53 21.45 171.22 21.77 171.2C24.22 171.07 26.67 171 29.12 170.92C32.24 170.81 34.25 169.32 35.31 166.32C37.54 160.05 38.94 153.56 40.34 147.09C41.36 142.38 42.18 137.63 43.09 132.9L42.74 132.71C36.17 137.05 29.6 141.39 22.82 145.86C23.01 143.14 23.18 140.68 23.36 138.21C23.55 135.55 23.78 132.9 23.94 130.24C23.99 129.36 24.27 128.76 25 128.2C32.59 122.51 40.15 116.79 47.69 111.04C48.15 110.69 48.55 110.09 48.7 109.53C53.19 92.4799 57.63 75.4299 62.12 58.3799C62.86 55.5699 63.74 52.7899 64.66 50.0399C65.08 48.7699 65.64 47.5199 66.31 46.3699C67.89 43.6699 70.43 42.7699 73.4 43.0699C76.06 43.3399 77.57 45.0899 78.06 48.0999C78.57 51.2799 78.1 54.4099 77.56 57.5199C75.69 68.3599 73.78 79.1899 71.88 90.0199C71.43 92.5699 70.96 95.1199 70.5 97.6699C70.45 97.9299 70.43 98.1999 70.37 98.6499C70.86 98.3199 71.22 98.0999 71.56 97.8599C82.59 90.0199 92.81 81.2099 102.5 71.7899C106.92 67.4799 111.35 63.1299 115.31 58.3999C120.35 52.3899 123.95 45.4999 125.73 37.7699C126.44 34.6899 126.67 31.5799 125.95 28.4699C124.65 22.8499 120.74 19.8899 115.45 18.4499C110.8 17.1799 106.03 17.2899 101.27 17.4599C89.91 17.8699 79.33 21.4199 68.88 25.4699C57.25 29.9699 46.15 35.4899 36.11 42.9599C30.61 47.0499 25.62 51.6799 21.65 57.3199C18.54 61.7399 16.28 66.5099 15.7 71.9499C15.17 76.9499 16.33 81.3199 20.45 84.5899C21.73 85.5999 22.92 86.7299 24.1 87.8499C24.59 88.3099 25.01 88.8499 25.38 89.4099C26.8 91.5599 26.56 93.6999 24.67 95.4499C22.26 97.6899 19.34 98.4799 16.12 98.2599C12.43 98.0199 9.40996 96.4499 6.93996 93.6799C3.23996 89.5499 0.729964 84.8499 0.139964 79.2899C-0.350036 74.7099 0.339964 70.2399 1.64996 65.8299C4.13996 57.4099 8.62996 50.2399 14.67 43.8899C33.39 24.2399 56.43 12.1699 82.32 5.03988C90.23 2.85988 98.25 1.11988 106.44 0.449885C115.78 -0.320115 125.11 -0.370115 134.21 2.46988C139.94 4.25988 145.23 6.84988 149.47 11.2299C154.08 15.9999 156.17 21.7799 156.55 28.3399C157.1 37.8099 153.62 45.9799 148.68 53.7199C143.29 62.1799 136.45 69.3699 129.17 76.1899C118.4 86.2799 106.58 95.0199 94.34 103.19C85.28 109.24 76.01 114.98 66.86 120.9C66.44 121.17 66.11 121.81 66 122.34C63.96 132.21 61.95 142.08 59.96 151.96C59.14 156.03 58.39 160.11 57.57 164.18C57.18 166.11 57.94 167.56 59.59 168.32C61.41 169.15 63.34 169.84 65.3 170.22C68.15 170.77 71.06 170.99 73.95 171.36C74.4 171.42 74.86 171.49 75.37 171.56L75.38 171.55ZM130.77 13.6799C131.42 14.2299 132.08 14.7599 132.72 15.3199C139.59 21.3399 141.88 28.7599 139.51 37.5899C137.78 44.0299 134.51 49.7199 130.64 55.0499C123.47 64.9299 114.99 73.6099 105.87 81.6899C95.46 90.9099 84.29 99.1499 72.94 107.17C72.53 107.46 72.12 107.76 71.72 108.05C72.12 108.05 72.44 107.91 72.72 107.73C75.69 105.86 78.7 104.04 81.63 102.09C96.14 92.3999 109.89 81.7599 121.88 69.0199C128.16 62.3499 133.83 55.2099 137.89 46.9299C140.59 41.4199 142.54 35.6999 141.84 29.4199C141.04 22.1899 136.76 17.3299 130.77 13.6799ZM70.59 55.6099C67.01 65.8799 47.46 158.25 48.26 161.45C56.99 126.23 64.44 91.0599 70.59 55.6099Z" fill="black"/>
</g>
<defs>
<clipPath id="clip0_382_4640">
<rect width="156.6" height="174.87" fill="white"/>
</clipPath>
</defs>
</svg>
